HIERARCHY
ROOT Hips
{
	OFFSET	0.00	0.00	0.00
	CHANNELS 6 Xposition Yposition Zposition Zrotation Xrotation Yrotation
	JOINT LeftUpLeg
	{
		OFFSET	 0.126116	-0.014019	-0.065224
		CHANNELS 3 Zrotation Xrotation Yrotation
		JOINT LeftLeg
		{
			OFFSET	 0.000000	 0.000000	 0.569914
			CHANNELS 3 Zrotation Xrotation Yrotation
			JOINT LeftFoot
			{
				OFFSET	 0.000000	 0.000000	 0.544423
				CHANNELS 3 Zrotation Xrotation Yrotation
				JOINT LeftToeBase
				{
					OFFSET	 0.000000	 0.000000	 0.207117
					CHANNELS 3 Zrotation Xrotation Yrotation
					End Site
					{
						OFFSET	 0.000000	 0.000000	 0.207117
					}
				}
			}
		}
	}
	JOINT RightUpLeg
	{
		OFFSET	-0.124023	-0.008373	-0.065224
		CHANNELS 3 Zrotation Xrotation Yrotation
		JOINT RightLeg
		{
			OFFSET	 0.000000	 0.000000	 0.570047
			CHANNELS 3 Zrotation Xrotation Yrotation
			JOINT RightFoot
			{
				OFFSET	 0.000000	 0.000000	 0.544354
				CHANNELS 3 Zrotation Xrotation Yrotation
				JOINT RightToeBase
				{
					OFFSET	 0.000000	 0.000000	 0.207540
					CHANNELS 3 Zrotation Xrotation Yrotation
					End Site
					{
						OFFSET	 0.000000	 0.000000	 0.207540
					}
				}
			}
		}
	}
	JOINT Spine
	{
		OFFSET	 0.000184	-0.007763	 0.117403
		CHANNELS 3 Zrotation Xrotation Yrotation
		JOINT Spine1
		{
			OFFSET	 0.000000	 0.000000	 0.137269
			CHANNELS 3 Zrotation Xrotation Yrotation
			JOINT Spine2
			{
				OFFSET	 0.000000	 0.000000	 0.156879
				CHANNELS 3 Zrotation Xrotation Yrotation
				JOINT LeftShoulder
				{
					OFFSET	 0.080501	-0.002496	 0.160144
					CHANNELS 3 Zrotation Xrotation Yrotation
					JOINT LeftArm
					{
						OFFSET	 0.000000	 0.000000	 0.164363
						CHANNELS 3 Zrotation Xrotation Yrotation
						JOINT LeftForeArm
						{
							OFFSET	 0.000000	 0.000000	 0.364576
							CHANNELS 3 Zrotation Xrotation Yrotation
							JOINT LeftHand
							{
								OFFSET	 0.000000	 0.000000	 0.360812
								CHANNELS 3 Zrotation Xrotation Yrotation
								JOINT LeftHandIndex1
								{
									OFFSET	 0.000000	 0.000000	 0.086006
									CHANNELS 3 Zrotation Xrotation Yrotation
									JOINT LeftHandIndex2
									{
										OFFSET	 0.000000	 0.000000	 0.047237
										CHANNELS 3 Zrotation Xrotation Yrotation
										JOINT LeftHandIndex3
										{
											OFFSET	-0.004284	-0.000551	 0.038165
											CHANNELS 3 Zrotation Xrotation Yrotation
											End Site
											{
												OFFSET	-0.004284	-0.000551	 0.038165
											}
										}
									}
								}
							}
						}
					}
				}
				JOINT Neck
				{
					OFFSET	 0.000000	 0.000000	 0.176489
					CHANNELS 3 Zrotation Xrotation Yrotation
					JOINT Head
					{
						OFFSET	 0.000000	-0.001747	 0.077940
						CHANNELS 3 Zrotation Xrotation Yrotation
						End Site
						{
							OFFSET	 0.000000	-0.001747	 0.077940
						}
					}
				}
				JOINT RightShoulder
				{
					OFFSET	-0.080363	 0.000306	 0.159706
					CHANNELS 3 Zrotation Xrotation Yrotation
					JOINT RightArm
					{
						OFFSET	 0.000000	 0.000000	 0.164196
						CHANNELS 3 Zrotation Xrotation Yrotation
						JOINT RightForeArm
						{
							OFFSET	 0.000000	 0.000000	 0.365611
							CHANNELS 3 Zrotation Xrotation Yrotation
							JOINT RightHand
							{
								OFFSET	 0.000000	 0.000000	 0.360648
								CHANNELS 3 Zrotation Xrotation Yrotation
								JOINT RightHandIndex1
								{
									OFFSET	 0.000000	 0.000000	 0.069977
									CHANNELS 3 Zrotation Xrotation Yrotation
									JOINT RightHandIndex2
									{
										OFFSET	 0.000000	 0.000000	 0.052305
										CHANNELS 3 Zrotation Xrotation Yrotation
										JOINT RightHandIndex3
										{
											OFFSET	 0.009002	-0.000782	 0.042196
											CHANNELS 3 Zrotation Xrotation Yrotation
											End Site
											{
												OFFSET	 0.009002	-0.000782	 0.042196
											}
										}
									}
								}
							}
						}
					}
				}
			}
		}
	}
}
MOTION
Frames:    11
Frame Time: 0.03333334
-0.711476	-1.647376	 1.272180	-176.426700	 6.639071	-2.420532	 2.504455	-10.993290	 178.487500	 0.437728	-20.343210	 0.831235	-27.307360	 57.661760	 18.146790	-2.385833	 28.452760	 0.000004	-5.266615	-15.118460	-176.009000	-6.109634	-20.713930	 1.697930	 20.696450	 84.154210	-9.942505	 2.384659	 28.388700	-0.000001	-3.216037	 7.082399	 3.088472	-3.060831	-13.800320	-15.768670	-2.573872	-3.247941	 18.390460	-91.776190	 78.527420	 180.000000	-30.902310	 4.738305	 15.700160	-10.416480	-7.540182	-58.315190	 7.232792	-3.553473	-4.022031	-4.131196	 21.524690	 0.986298	-5.167839	 0.733520	 3.519257	-1.378229	 35.397820	-2.634230	 1.422097	 7.991896	 1.124878	-16.323910	-8.924021	-5.378648	 89.782160	 78.203890	 179.999900	 7.558557	 10.812920	-7.915213	-3.472771	-12.955730	 37.482850	-16.085550	 40.515230	 44.036730	 5.715225	 19.176060	-3.692089	 5.027514	 0.245388	-9.378011	-2.350882	 35.473990	 5.254307
-0.702654	-1.632059	 1.269477	-176.318800	 7.395565	-2.778966	 0.595007	-12.074220	 176.657100	 3.105522	-26.454960	 2.243914	-36.240410	 57.917570	 27.027930	-2.385833	 28.452760	 0.000004	-2.996351	-20.414850	-174.462000	-6.953995	-26.046380	 1.735041	 48.717350	 83.768140	-37.540330	 2.384659	 28.388700	-0.000001	-6.910585	 4.780487	 3.031635	-6.990816	-5.381354	-19.891560	-0.620475	-7.528276	 20.909080	-91.776150	 78.527360	 180.000000	-24.001250	 21.802600	 33.833060	-15.233620	-7.826988	-91.373250	 6.360344	-4.044397	-3.732602	-4.131196	 21.524690	 0.986298	-5.167839	 0.733520	 3.519257	-1.378229	 35.397820	-2.634230	 1.550799	 8.104931	 1.268130	-16.165990	-9.089164	-5.430115	 89.782140	 78.203900	 180.000000	 1.107351	 27.410950	-13.735160	 3.956309	-18.788330	 64.156670	-10.573930	 34.393020	 26.181410	 5.715225	 19.176060	-3.692089	 5.027514	 0.245388	-9.378011	-2.350882	 35.473990	 5.254307
-0.699534	-1.626237	 1.268680	-176.340800	 7.815629	-2.788006	-0.347081	-12.211230	 175.896100	 3.858101	-27.992400	 2.734358	-39.020840	 57.785640	 29.851880	-2.385833	 28.452760	 0.000004	-2.570015	-22.258690	-173.968600	-6.973250	-27.401890	 1.809591	 47.363320	 82.194500	-36.407200	 2.384659	 28.388700	-0.000001	-8.227961	 3.768776	 2.609624	-8.304880	-2.112980	-20.700080	 0.173364	-9.169086	 21.597850	-91.776160	 78.527400	 180.000000	-19.706360	 28.873790	 35.100640	-16.018480	-7.512203	-97.395710	 6.150246	-4.156149	-3.664106	-4.131196	 21.524690	 0.986298	-5.167839	 0.733520	 3.519257	-1.378229	 35.397820	-2.634230	 1.627488	 8.168618	 1.218221	-16.145520	-9.236756	-5.469543	 89.782100	 78.203890	 180.000000	-1.716310	 33.522270	-12.681720	 5.337007	-19.457380	 68.473910	-12.654910	 30.790180	 23.377780	 5.715225	 19.176060	-3.692089	 5.027514	 0.245388	-9.378011	-2.350882	 35.473990	 5.254307
-0.679545	-1.588451	 1.265844	-176.648900	 11.134640	-1.519020	-5.650229	-11.532510	 170.806100	 3.858900	-32.635190	 3.141447	-44.561650	 53.977750	 38.812980	-2.385833	 28.452760	 0.000004	-1.882729	-31.406900	-172.823800	-6.713861	-31.068960	 2.163325	 31.006360	 68.474270	-22.917960	 2.384659	 28.388700	-0.000001	-15.026750	-1.778867	-3.890606	-15.084550	 12.766030	-18.054710	 3.383675	-16.703030	 22.167520	-91.776180	 78.527400	 180.000000	 17.156780	 50.391120	-9.459587	-14.417620	-7.328614	-85.094000	 5.842316	-4.394011	-3.578526	-4.131196	 21.524690	 0.986298	-5.167839	 0.733520	 3.519257	-1.378229	 35.397820	-2.634230	 2.034946	 8.361250	 0.555025	-16.135020	-9.634331	-4.990957	 89.782100	 78.288610	-179.976700	-23.275620	 60.266200	 13.292440	 0.945820	-18.414180	 56.358870	-35.029430	 5.382868	 23.230270	 5.715225	 19.176060	-3.692089	 5.027514	 0.245388	-9.378011	-2.350882	 35.473990	 5.254307
-0.642828	-1.525742	 1.264472	-176.789000	 14.160190	 0.411021	-7.918110	-6.977766	 165.358700	 1.350375	-31.364080	 1.720247	-36.366840	 43.353580	 37.325730	-2.385833	 28.452760	 0.000004	-2.221625	-37.600630	-173.380800	-8.044393	-31.421520	 1.489751	 31.540120	 62.177220	-24.523260	 2.384659	 28.388700	-0.000001	-21.148320	-5.057143	-12.201000	-21.085580	 20.111750	-10.206890	 4.074582	-20.805070	 19.396280	-91.776130	 78.527420	 180.000000	 16.293980	 47.082030	-62.613880	-7.229612	-0.069233	-0.543561	 5.706540	-4.784637	-3.550770	-4.131196	 21.524690	 0.986298	-5.167839	 0.733520	 3.519257	-1.378229	 35.397820	-2.634230	 2.479673	 8.775455	 0.036785	-16.016650	-10.099280	-4.592351	 89.781920	 78.319820	-179.968000	-40.126240	 67.413640	 54.217700	-9.106793	-0.181485	 0.489840	-44.996290	-32.809330	 32.682830	 5.715225	 19.176060	-3.692089	 5.027514	 0.245388	-9.378011	-2.350882	 35.473990	 5.254307
-0.602260	-1.467869	 1.264338	-176.774900	 11.441670	 1.279989	-2.999587	-2.772868	 162.639700	-0.034137	-30.187830	 0.964702	-18.982400	 28.909340	 28.953300	-2.385833	 28.452760	 0.000004	-6.093579	-34.111580	-177.082900	-8.288110	-31.633100	 1.370720	 31.726980	 62.110450	-25.336280	 2.384659	 28.388700	-0.000001	-20.640180	-2.446272	-10.853290	-18.965070	 17.553980	-11.137630	 2.728695	-18.646580	 18.317390	-91.776180	 78.527400	-180.000000	 21.270220	 51.455110	-40.874310	-8.960762	-6.293371	-45.845440	 6.644206	-4.193277	-3.841126	-4.131196	 21.524690	 0.986298	-5.167839	 0.733520	 3.519257	-1.378229	 35.397820	-2.634230	 2.274034	 8.632401	-0.474811	-16.541570	-9.778956	-5.931242	 89.782020	 78.306680	-179.974500	-30.790780	 63.524500	 45.392700	-8.057032	-0.181638	 0.534381	-38.825730	-25.824900	 36.555740	 5.715225	 19.176060	-3.692089	 5.027514	 0.245388	-9.378011	-2.350882	 35.473990	 5.254307
-0.536605	-1.379412	 1.264263	-179.075400	 9.803843	 3.961812	-0.050190	-7.394377	 156.139600	-1.247805	-42.255440	 0.473620	-12.528960	 28.043980	 27.814340	-2.385833	 28.452760	 0.000004	-10.386330	-32.286350	 175.454200	-7.987042	-37.678550	 1.781633	 35.637800	 67.309510	-29.713530	 2.384659	 28.388700	-0.000001	-19.400540	-0.949146	-13.230630	-18.076730	 15.250820	-11.037740	 1.139178	-16.683010	 17.429640	-91.776150	 78.527360	 180.000000	 23.899520	 51.818560	-36.416680	-7.868991	-7.593208	-46.455990	 9.396024	-2.253065	-4.743156	-4.131196	 21.524690	 0.986298	-5.167839	 0.733520	 3.519257	-1.378229	 35.397820	-2.634230	 1.540415	 8.566583	-1.219455	-17.497090	-9.301390	-7.361836	 89.782070	 78.301100	-179.978700	-27.224490	 63.194400	 41.344590	-8.058729	-0.180441	 0.557513	-37.465880	-23.854130	 37.207580	 5.715225	 19.176060	-3.692089	 5.027514	 0.245388	-9.378011	-2.350882	 35.473990	 5.254307
-0.478772	-1.305574	 1.264485	 179.414600	 8.959061	 5.315119	-0.640938	-17.067860	 151.830500	-3.784076	-57.814450	-1.550585	-12.732880	 37.085510	 27.088760	-2.385833	 28.452760	 0.000004	-11.844060	-28.844350	 170.501200	-7.976805	-41.295490	 1.930308	 41.441360	 72.577510	-34.832010	 2.384659	 28.388700	-0.000001	-17.867110	-0.640645	-14.287520	-17.050950	 13.625130	-11.432580	 0.658148	-15.703700	 17.425790	-91.776210	 78.527360	-180.000000	 25.579830	 53.910420	-35.500760	-4.996370	-8.121886	-38.661210	 11.150910	-1.196726	-5.544531	-4.131196	 21.524690	 0.986298	-5.167839	 0.733520	 3.519257	-1.378229	 35.397820	-2.634230	 1.469041	 8.639480	-1.934215	-17.859990	-9.508665	-7.135948	 89.782080	 78.294430	-179.980200	-27.117440	 63.813690	 40.337970	-9.205810	-0.188745	 0.571824	-37.337460	-25.590830	 37.187660	 5.715225	 19.176060	-3.692089	 5.027514	 0.245388	-9.378011	-2.350882	 35.473990	 5.254307
-0.409176	-1.212634	 1.265388	 177.967200	 7.812266	 6.837031	-2.807841	-29.839260	 148.888000	-11.221970	-73.296720	-8.885083	-14.849600	 49.207620	 24.878650	-2.385833	 28.452760	 0.000004	-12.027310	-21.391610	 165.814100	-8.794312	-40.616170	 1.371333	 42.007540	 76.640670	-33.659160	 2.384659	 28.388700	-0.000001	-15.279200	 0.095127	-14.972680	-14.844870	 11.314390	-11.967620	 0.333813	-14.479650	 17.709230	-91.776200	 78.527400	-180.000000	 28.301220	 55.278890	-36.817890	-4.477130	-5.340952	-26.643620	 10.291310	-1.652373	-5.229278	-4.131196	 21.524690	 0.986298	-5.167839	 0.733520	 3.519257	-1.378229	 35.397820	-2.634230	 1.409990	 8.775797	-2.137758	-18.012460	-9.876085	-7.245172	 89.782140	 78.203920	 180.000000	-27.555360	 63.598350	 41.016160	-9.751603	-0.192228	 0.596644	-34.793120	-27.047380	 37.473880	 5.715225	 19.176060	-3.692089	 5.027514	 0.245388	-9.378011	-2.350882	 35.473990	 5.254307
-0.345107	-1.106136	 1.268473	 176.603900	 7.231221	 7.739158	-1.509735	-40.675220	 153.161500	-17.487980	-75.258980	-15.048070	-14.506290	 58.219540	 15.609630	-2.385833	 28.452760	 0.000004	-10.361950	-14.583580	 162.840300	-10.200400	-39.861600	 0.448617	 42.938500	 79.464420	-32.811650	 2.384659	 28.388700	-0.000001	-13.910940	 0.310633	-15.343930	-13.902850	 10.056180	-11.829240	 0.186697	-14.000920	 17.733200	-91.776150	 78.527400	 180.000000	 33.161090	 56.951530	-38.989890	-6.647198	-2.178636	-14.602830	 8.010317	-3.156559	-4.235158	-4.131196	 21.524690	 0.986298	-5.167839	 0.733520	 3.519257	-1.378229	 35.397820	-2.634230	 1.380365	 8.811132	-2.290666	-18.058990	-10.128630	-6.752063	 89.782110	 78.203920	 180.000000	-27.736080	 62.301170	 45.565760	-9.014396	-0.186968	 0.632979	-33.811810	-25.313310	 37.502740	 5.715225	 19.176060	-3.692089	 5.027514	 0.245388	-9.378011	-2.350882	 35.473990	 5.254307
-0.280911	-0.982527	 1.275047	 175.557700	 7.242976	 8.463338	 4.974655	-42.893860	 165.565200	-9.555365	-56.464080	-6.348958	-4.710364	 56.935690	-3.572187	-2.385833	 28.452760	 0.000004	-8.151373	-5.909361	 160.867200	-10.613450	-36.435190	 0.170379	 42.752330	 83.615740	-31.278010	 2.384659	 28.388700	-0.000001	-13.860620	 0.126691	-15.282760	-13.988660	 10.832510	-11.267050	 0.398445	-14.568960	 17.679970	-91.776170	 78.527360	-180.000000	 40.156360	 59.970360	-44.104240	-8.423472	-0.058357	-0.707806	 6.754088	-4.079194	-3.688157	-4.131196	 21.524690	 0.986298	-5.167839	 0.733520	 3.519257	-1.378229	 35.397820	-2.634230	 1.427591	 9.247673	-2.428477	-18.098530	-10.844450	-6.697823	 89.782140	 78.203870	 180.000000	-29.541420	 60.818650	 54.946270	-7.725908	-0.178369	 0.677950	-33.923890	-23.037370	 36.971570	 5.715225	 19.176060	-3.692089	 5.027514	 0.245388	-9.378011	-2.350882	 35.473990	 5.254307
